<svg width="256" height="256" viewBox="0 0 256 256" fill="none" xmlns="http://www.w3.org/2000/svg">
<rect width="256" height="256" fill="white"/>
<path fill-rule="evenodd" clip-rule="evenodd" d="M110.813 36.4165C88.0735 39.0506 69.6069 47.515 54.9164 62.039C36.2088 80.5335 27.178 102.198 27.2802 128.334C27.3039 134.425 27.4038 140.096 27.5022 140.936C27.6593 142.271 27.1216 142.513 23.2167 142.86C19.5475 143.187 18.4264 143.637 16.9247 145.385C14.1669 148.596 14.3949 153.031 17.4662 155.904L18.3935 156.771C19.3197 157.638 20.5406 158.12 21.8089 158.12H36.102C45.0489 158.12 53.2332 158.449 54.2887 158.851C56.3464 159.634 58.5696 163.182 58.5696 165.683C58.5696 170.094 54.8462 173.394 49.8728 173.394C42.9699 173.394 39.1451 178.988 42.1149 184.74C44.0628 188.511 45.2793 188.669 72.3838 188.669C89.428 188.669 98.1041 188.945 99.2321 189.522C104.048 191.988 105.08 197.964 101.338 201.711L100.573 202.477C99.6356 203.416 98.3628 203.944 97.0355 203.944H81.089C66.509 203.944 62.6445 204.164 60.8423 205.097C58.0304 206.553 57.0442 208.395 57.0442 212.191C57.0442 215.95 59.6701 218.822 63.7229 219.493C68.8908 220.348 196.747 220.042 199.894 219.167C205.652 217.566 207.393 210.574 203.103 206.276L202.594 205.765C201.672 204.842 200.426 204.316 199.122 204.298L172.651 203.944C146.087 203.588 144.038 203.463 142.557 202.121C138.963 198.861 140.082 191.528 144.478 189.523C145.506 189.053 149.062 188.669 152.378 188.669C155.694 188.669 159.244 188.287 160.266 187.821C165.315 185.518 165.315 176.546 160.266 174.242C159.244 173.776 156.845 173.394 154.935 173.394C152.003 173.394 151.059 172.99 148.87 170.798C147.187 169.112 146.277 167.469 146.277 166.114C146.277 163.338 148.925 159.17 151.052 158.599C151.991 158.347 170.709 158.136 192.647 158.13C235.277 158.119 235.779 158.077 237.774 154.343C239.651 150.833 238.171 145.136 235.008 143.693C233.902 143.188 228.367 142.845 221.327 142.845H209.504L210.025 133.464C211.969 98.4377 194.741 66.2441 164.581 48.5384C148.918 39.3439 127.407 34.4942 110.813 36.4165ZM177.488 175.627C175.739 177.378 175.258 178.543 175.258 181.032C175.258 183.52 175.739 184.685 177.488 186.437L178.252 187.202C179.19 188.141 180.463 188.669 181.79 188.669H190.792C201.4 188.669 201.957 188.591 204.006 186.826C205.838 185.248 206.146 184.414 206.146 181.032C206.146 177.65 205.838 176.815 204.006 175.237C201.957 173.472 201.4 173.394 190.792 173.394H181.79C180.463 173.394 179.19 173.922 178.252 174.861L177.488 175.627ZM222.572 174.369C220.281 175.53 218.362 180.221 219.052 182.974C219.328 184.078 220.384 185.811 221.396 186.825C223.173 188.605 223.623 188.669 234.272 188.669C245.031 188.669 245.366 188.619 247.653 186.692C249.632 185.025 250 184.177 250 181.287C250 178.517 249.572 177.431 247.771 175.627L247.009 174.864C246.069 173.923 244.794 173.395 243.465 173.397L234.996 173.406C228.111 173.413 223.798 173.747 222.572 174.369Z" fill="#E96E4C"/>
</svg>
